<?xml version="1.0" standalone="no"?>
<!DOCTYPE svg PUBLIC "-//W3C//DTD SVG 20010904//EN"
 "http://www.w3.org/TR/2001/REC-SVG-20010904/DTD/svg10.dtd">
<svg version="1.0" xmlns="http://www.w3.org/2000/svg"
 width="380.000000pt" height="380.000000pt" viewBox="0 0 380.000000 380.000000"
 preserveAspectRatio="xMidYMid meet">

<g transform="translate(0.000000,380.000000) scale(0.100000,-0.100000)"
fill="#000000" stroke="none">
<path d="M875 2448 c-3 -7 -4 -258 -3 -558 3 -537 3 -545 23 -545 19 0 20 8
23 197 l2 196 398 132 c324 108 403 138 427 161 l30 29 3 188 c3 159 1 191
-12 201 -31 26 -36 2 -36 -178 0 -156 -2 -182 -17 -200 -13 -15 -126 -57 -393
-146 -206 -69 -380 -125 -387 -125 -10 0 -13 73 -15 327 -3 303 -4 328 -21
331 -9 2 -19 -2 -22 -10z"/>
<path d="M2032 2452 c-10 -7 -12 -89 -10 -395 l3 -387 30 -29 c25 -23 105 -54
443 -166 252 -84 417 -134 423 -128 5 5 8 233 7 559 -3 541 -3 549 -23 549
-20 0 -20 -8 -23 -522 -2 -408 -5 -523 -15 -523 -29 0 -767 253 -779 267 -10
12 -14 101 -18 396 -3 240 -9 382 -15 384 -5 1 -16 -1 -23 -5z"/>
<path d="M1737 1894 c-12 -12 -8 -542 3 -549 6 -4 18 -1 26 5 22 19 16 543 -6
548 -9 1 -19 0 -23 -4z"/>
</g>
</svg>
